<svg xmlns="http://www.w3.org/2000/svg" width="368.432" height="155.977" viewBox="0 0 368.432 155.977">
  <g id="Component_10_11" data-name="Component 10 – 11" transform="translate(0.5 0.5)">
    <path id="Union_41" data-name="Union 41" d="M0,77.489a77.656,77.656,0,1,1,77.655,77.489A77.66,77.66,0,0,1,0,77.489Zm12.007,0A65.647,65.647,0,1,0,77.655,11.983,65.651,65.651,0,0,0,12.007,77.489Zm336.07,27.2L323.951,83.828,299.5,104.691H283.582l32.65-27.765L284.948,50.364H302.72l63.853,54.328Zm-82.715-.039V50.325H277.99v54.327Zm-20.919,0V69.263c0-4.894-2.172-7.382-6.676-7.382H218.95v42.772H206.4V61.88H180.993v42.772H168.367V50.325h72.056c11.339,0,16.646,5.94,16.646,17.654v36.673Zm-134.577,0V50.325h12.626v54.327Zm-21.158,0V81.943H52.1V71.109h36.6V50.325h12.626v54.327Zm-55.892,0V50.325H45.443v54.327ZM330.344,65.42l17.572-15.057h15.922L338.21,72.151Z" transform="translate(0 0)" fill="#fff" stroke="rgba(0,0,0,0)" stroke-miterlimit="10" stroke-width="1"/>
  </g>
</svg>
